<svg xmlns="http://www.w3.org/2000/svg" width="270.011" height="75.62" viewBox="0 0 270.011 75.62">
  <g id="creativeheroes" transform="translate(-84.275 -84.344)">
    <path id="Path_446" data-name="Path 446" d="M389.579,112.037a3.014,3.014,0,1,0-3-3.014,3.014,3.014,0,0,0,3,3.014Z" transform="translate(-190.246 -13.631)" fill="#fff"/>
    <path id="Path_447" data-name="Path 447" d="M358.262,131.482c-.712-.638-3.733-2.876-3.733-2.876s.693-2.042,1.042-3.547,1.194-6.046-1.6-7.725a3.768,3.768,0,0,0-5.074,1.093,9.327,9.327,0,0,0,.967,12.288c-5.3,12.191-11.546,14.86-11.546,14.86-4.644,2.15-3.836-6.62-3.836-6.62s7.3,1.3,9.667-8.062l.093-.526c1.194-10.264-5.249-8.9-5.249-8.9-4.215.171-7.08,7.625-7.08,7.625-3.025,3.659-5.119,3.236-5.119,3.236-.159-9.33-4.871-7.973-4.871-7.973a5.286,5.286,0,0,0-2.736,1.761c-1.149-.853-4.077,1.672-6.138,6.728a34.366,34.366,0,0,0-2.339,13.014c-2.947,6.3-4.626,6.168-4.626,6.168-2.628-.56.882-13.033.882-13.033.271-.916.775-2.1,1.379-3.785s-1.716-3.381-2.632-3.725a23.875,23.875,0,0,1-2.309-1.112c1.853-7.936-2.561-7.784-2.561-7.784a3.733,3.733,0,0,0-3.688,2.472c-1.3,3.477,1.416,6.227,1.416,6.227-1,4.4-2.028,8-3.006,10.927-1.449,3.866-3.473,7.947-6.2,10.749a11.09,11.09,0,0,1-2.309,1.531c-4.644,2.15-3.836-6.624-3.836-6.624s7.3,1.308,9.667-8.062l.093-.526c1.194-10.26-5.249-8.9-5.249-8.9-3.477.141-6.031,5.23-6.82,7.013a17.846,17.846,0,0,0-5.36-1.086c-.93-.078-1.946-.13-3.036-.156.667-2.665,4.137-14.3,4.137-14.3,1.631-5.5,2.487-9.018,1.809-9.311s-2.706,2.724-5.252,7.981c0,0-4.3,8.915-6,15.665-2.357.074-4.945.219-7.74.43,1.853-9.041,2.965-17.892,2.965-17.892,2.8-17.181,5.56-19.482,5.56-19.482-5.642-1.227-9.267,16.154-9.752,18.674,0,0-3.28,15.8-4.077,19.156-15.854,1.509-36.937,4.682-59.989,8.792-24.164,4.318-56.049,10.99-71.743,14.489s-25.328,6.027-25.206,6.557,9.938-1.038,25.758-3.844,47.772-8.985,71.91-13.344c22.485-4.011,43-7.5,58.566-9.637-6.546,26.006-15.086,24.724-15.086,24.724-6.75.178-12.1-12.936-12.1-12.936-1.2-2.317-1.983-3.584-2.328-3.462s-.2,1.6.426,4.177c0,0,3.121,15.516,13.848,16.68,0,0,13.57,2.154,20.728-29.917,2.791-.371,5.375-.652,7.732-.89,0,0-6.461,21.477,4.385,22.956,0,0,5.438,1.249,8.548-5.983,0,0,1.59,4.025,5.719,3.833,0,0,10.138,1.434,16.906-23.967.182.1.9.489,1.019.567,0,0-6.65,20.565,3.462,19.8,0,0,2.988-.056,5.252-5.493a6.077,6.077,0,0,0,6,3.5s8.525-.526,8.922-18.456a6.405,6.405,0,0,0,3.9-1.957s-4.611,17.1,6.383,17.1c0,0,7.469.982,15.346-17.5,0,0,1.95,1.338,2.617,1.853s4.689,3.514,3.006,7.743c-1.008,2.543-6.672,2.339-6.672,2.339a15.118,15.118,0,0,1-1.712-.167c-.4-.067-.671-.082-.779.048s-.018.389.308.775a4.864,4.864,0,0,0,1.79,1.131,13.07,13.07,0,0,0,6,.534c4.923-.849,5.293-5.838,5.293-5.838a11.3,11.3,0,0,0-4.117-9.8Zm-19.078-5.638s.593-.463.856.371a9.284,9.284,0,0,1-.76,7.958,6.245,6.245,0,0,1-4.6,3.1s.8-8.749,4.5-11.429ZM287.92,134.77s.593-.463.856.371a9.312,9.312,0,0,1-.741,7.955,6.245,6.245,0,0,1-4.6,3.1s.767-8.748,4.5-11.424Zm-8.488,7.413a30,30,0,0,0-.819,9.834c-3.106,5.393-5.464,5.56-5.464,5.56-6.031.93-2.28-14.378-2.28-14.378.308-1.757.741-3.5,1.157-5.189q1.885-.123,3.451-.152a23.973,23.973,0,0,1,5.112.315Zm21.128-15.768a9.044,9.044,0,0,1-.337,1.609,2.62,2.62,0,0,1-.193.426,2.024,2.024,0,0,1-.122.2l.019.093a1.4,1.4,0,0,1-.534-.979,4.319,4.319,0,0,1,.056-2.013.463.463,0,0,1,.052-.152c.148-.352.371-.575.7-.53a.467.467,0,0,1,.426.337.717.717,0,0,1,.033.182.3.3,0,0,1,0,.059,3.892,3.892,0,0,1-.093.764Zm16.706,22.741c-.1.056-2.324.778-2.6-6.257a28.031,28.031,0,0,1,3.848-15.742,1.332,1.332,0,0,0-.063.178c-.256.815-.982,4.27,3.8,7.043C321.566,148.6,317.266,149.156,317.266,149.156Zm5.415-19.557a1.138,1.138,0,0,1-.486-.178l-.059-.041a3.476,3.476,0,0,1-1.112-1.775c-.126-.541-.167-1.2.415-1.538.289-.163.916-.163,1.079.167.423.5.289,2.584.163,3.373Zm29.038-3.621a7.017,7.017,0,0,1-1.2-4.363c.278-2.291,1.231-2.165,1.231-2.165s2.862.007-.026,6.535Z" transform="translate(-8.141 -9.335)" fill="#fff"/>
    <path id="Path_448" data-name="Path 448" d="M96.917,148.131a10.927,10.927,0,0,0,9.871-1.3s8.666-4.96,15.242-25.521c.689.3,1.683.534,2.165.741,0,0,.526.178.371.567,0,0-7.691,20.735,2.6,21.176a8.281,8.281,0,0,0,7.161-5.364,6.89,6.89,0,0,0,6.1,2.913s5.931.778,12.973-11.565l.3,2.191s1.271,5.653,5.189,5.971c0,0,3.5.693,7.043-5.093,0,0,1.483,3.825,4.989,3.173,4.789-.9,8.066-7.091,8.066-7.091s1.557,5.434,5.43,4.767c4.615-.8,7.462-6.3,7.462-6.3s1.557,4.619,5.382,4.077,5.7-3.44,6.757-4.8a3.333,3.333,0,0,0,4.378,2.884c3.914-.975,8.848-5.112,12.744-18.033a17.5,17.5,0,0,0,2.483,1.294c-.445,5.423.334,12.77,7.821,12.766,0,0,10.749-.482,13.8-17.629.371-2.1.371-3.458-.03-3.54h0c-.393-.067-1.3.949-1.887,2.888-3.484,11.424-10.564,13.133-10.564,13.133-5.008,2.32-4.14-7.147-4.14-7.147s7.88,1.409,10.434-8.7l.1-.571c1.286-11.072-5.66-9.6-5.66-9.6-4.552.182-7.64,8.225-7.64,8.225l-1.29,4.493a33.476,33.476,0,0,0-.715,3.707,4.007,4.007,0,0,1-2.183-1.383s.489-1.557,1.675-7.484-1.931-5.312-1.931-5.312a6.576,6.576,0,0,0-5.56,3.955s-2.005,3.977,1.768,8.092c-3.6,12.151-7.662,14.742-8.525,14.868-.315.044-.141-.589-.141-.589,1.575-16.932.3-21.354.3-21.354-.352-1.62-.715-2.487-1.075-2.469s-.682.923-.956,2.5c0,0-2.35,13.963-3.121,20.016-4.229,5.189-6.394,4.856-6.394,4.856-.489.2-.741-.371-.741-.371-2.847-6.3.99-20.8,1.394-22.285a27.681,27.681,0,0,1,.93-3.147,14.483,14.483,0,0,0-1.879.248,1.052,1.052,0,0,0-.423.326,6.429,6.429,0,0,0-.767,1.2,52.423,52.423,0,0,0-5.141,21,23.478,23.478,0,0,1-6.186,5.953.741.741,0,0,1-1.064-.371c-2.691-4.644,3.492-26.951,3.492-26.951a17.912,17.912,0,0,0,3.525-.86,8.159,8.159,0,0,0,.9-.393,3.926,3.926,0,0,0,.686-.434c.371-.293.526-.575.471-.841s-.315-.486-.715-.663a4.661,4.661,0,0,0-.708-.234,8.06,8.06,0,0,0-.945-.185,19.491,19.491,0,0,0-2.524-.178c2.135-9.1,1.9-9.574,1.9-9.574s-3.6-.519-4.077.167c-.322.449-2.483,9.73-2.483,9.73a19.35,19.35,0,0,0-3.518.815c-1.346.467-2.2,1.064-2.1,1.594s.938.927,2.346,1.164a16.9,16.9,0,0,0,2.224.2s-3.759,14.278-3.981,21.247a18.23,18.23,0,0,1-7.076,7.321c-.489.293-.63-.345-.63-.345-2.558-8.418,2.483-19.838,3.64-22.459,0,0,1.079-2.131.667-2.246a2.205,2.205,0,0,0-2.417.4c-.322.371-.678.893-1.06,1.42-5.441-4.037-11.368,1.42-11.368,1.42-3.262,2.965-4.971,7.21-5.868,10.953h0c-5.712,13.155-12.455,16.031-12.455,16.031-5.049,2.332-4.177-7.121-4.177-7.121s7.88,1.412,10.431-8.7l.1-.571c1.286-11.068-5.664-9.6-5.664-9.6-4.548.185-7.639,8.229-7.639,8.229l-1.29,4.493s-1.853,6.846-.608,12.2c-2.272,5.56-5.745,5.56-5.745,5.56s-3.8.167-.93-9.741a42.335,42.335,0,0,1,2.791-8.029c1.227-2.758-2.932-4.733-2.932-4.733-.741-.371-1.364-.623-1.909-.886-.2-.1-.371-.2-.563-.293,1.275-5.019.067-6.768-.282-7.232a3.477,3.477,0,0,0-1.572-1.112,4.181,4.181,0,0,0-2.943.215c-.6.267-4.159,2.472-.512,9.118-8.492,26.414-17.837,25.576-17.837,25.576a3.477,3.477,0,0,1-1.609-.267c-7.132-4.107-.7-28.327-.7-28.327s22.663,2.18,24.045-21.554c.53-9.078-8.288-9.067-8.288-9.067a11.2,11.2,0,0,0-2.513.4c-9.9,2.521-17.444,26.722-17.444,26.722a20.231,20.231,0,0,1-7.688-1.627c-1.271-.723-1.853-.9-1.976-.741s.371.693,1.4,1.631a22.824,22.824,0,0,0,7.532,3.644C93.228,114.356,84.747,142.693,96.917,148.131Zm136.81-49.24s.649-.508.942.411a10.244,10.244,0,0,1-.838,8.766,6.827,6.827,0,0,1-5.071,3.41s.849-9.636,4.967-12.587Zm-15.442,2.265c.971-1.572,1.446-1.535,1.957-1.59.126-.03.56,0,.545.608a2.438,2.438,0,0,1-.185.8s-1.512,3.933-2.005,5.226a4.535,4.535,0,0,1-.312-5.044ZM161.224,115.3s.093-.208.267-.545a13.3,13.3,0,0,1,2.246-3.1,6.325,6.325,0,0,1,6.3-1.968s-.182.271-.478.767c-.211.371-.486.834-.79,1.412-1.887,3.551-5.067,10.927-3.681,18.259a36.058,36.058,0,0,1-4.292,3.058c-.512.308-.812.467-.812.467a.434.434,0,0,1-.371.026h-.067l-.041-.026a.841.841,0,0,1-.1-.1h0a1.368,1.368,0,0,1-.237-.423h0a14.435,14.435,0,0,1-.8-3.4C157.528,122.662,161.224,115.3,161.224,115.3Zm-18.533-.66s.649-.512.938.411a10.236,10.236,0,0,1-.838,8.763,6.82,6.82,0,0,1-5.071,3.414s.867-9.649,4.986-12.588Zm-28.62-26.046s4.871.174,4,6.439c-2.435,17.555-18.934,16.784-18.934,16.784S106.128,89.347,114.071,88.594Z" fill="#fff"/>
  </g>
</svg>
