<svg xmlns="http://www.w3.org/2000/svg" width="270" height="270" viewBox="0 0 270 270">
  <g id="icon-step1" transform="translate(-7831 -3165)">
    <rect id="Rectangle_381" data-name="Rectangle 381" width="270" height="270" transform="translate(7831 3165)" fill="rgba(255,255,255,0)"/>
    <g id="Nakup" transform="translate(7151.714 247.54)">
      <path id="Path_534" data-name="Path 534" d="M32.1,109.026a31.977,31.977,0,0,1-.851-5.133,41.558,41.558,0,0,1,.105-10.006c.726-5.818,1.346-11.651,1.808-17.5a7.6,7.6,0,0,0,.063-3.154,3.569,3.569,0,0,1-.138-1.75,15.6,15.6,0,0,0,.125-2.149,102.8,102.8,0,0,0-.368-11.159,39.248,39.248,0,0,0-.965-7,4.226,4.226,0,0,1-.149-2.894c.355-.841-.375-2.874-.54-3.733-.286-1.482-.593-2.961-.968-4.416-.516-2.01-1.114-3.989-1.735-5.96C26.4,27.566,23.7,20.887,23.54,13.729c-.013-.546-.033-1.091-.06-1.637a2.23,2.23,0,0,1,.019-.628c.037-.155.087-.145.173-.228a5.007,5.007,0,0,0,.974-.959,1.751,1.751,0,0,0,.112-1.226,19.939,19.939,0,0,0-.909-3.789c-.12-.3-.256-.712.026-.842.9-.415.919-2.158.613-3.046A1.734,1.734,0,0,0,22.965.186,54.809,54.809,0,0,0,16.692.011,54.12,54.12,0,0,0,10.42.188,1.735,1.735,0,0,0,8.9,1.375c-.308.888-.289,2.63.611,3.046.281.13.148.544.026.842a19.858,19.858,0,0,0-.908,3.789,1.757,1.757,0,0,0,.11,1.226,5.033,5.033,0,0,0,.974.959c.089.083.136.072.173.228a2.312,2.312,0,0,1,.019.628c-.027.547-.047,1.091-.06,1.637C9.682,20.889,6.982,27.567,4.9,34.173c-.621,1.969-1.22,3.949-1.737,5.96-.374,1.456-.682,2.934-.966,4.416-.165.859-.9,2.892-.542,3.733a4.238,4.238,0,0,1-.149,2.894,39.346,39.346,0,0,0-.965,7A103.28,103.28,0,0,0,.174,69.332,15.92,15.92,0,0,0,.3,71.481a3.546,3.546,0,0,1-.138,1.75,7.618,7.618,0,0,0,.063,3.154c.463,5.852,1.083,11.687,1.808,17.5A41.4,41.4,0,0,1,2.137,103.9a31.736,31.736,0,0,1-.851,5.133A38.132,38.132,0,0,0,.1,116.768a20.642,20.642,0,0,0,.3,4.857c.113.706.243,1.406.306,2.126a4.413,4.413,0,0,0,3.27,3.661,33.77,33.77,0,0,0,7.42,1.682,45.418,45.418,0,0,0,5.3.285,45.4,45.4,0,0,0,5.293-.285,33.813,33.813,0,0,0,7.42-1.682,4.412,4.412,0,0,0,3.27-3.661c.065-.72.193-1.419.308-2.126a20.81,20.81,0,0,0,.3-4.857,38.128,38.128,0,0,0-1.184-7.742Z" transform="matrix(0.966, 0.259, -0.259, 0.966, 786.431, 2972.103)" fill="#f40000"/>
      <path id="Path_535" data-name="Path 535" d="M32.1,109.026a31.977,31.977,0,0,1-.851-5.133,41.558,41.558,0,0,1,.105-10.006c.726-5.818,1.346-11.651,1.808-17.5a7.6,7.6,0,0,0,.063-3.154,3.569,3.569,0,0,1-.138-1.75,15.6,15.6,0,0,0,.125-2.149,102.8,102.8,0,0,0-.368-11.159,39.248,39.248,0,0,0-.965-7,4.226,4.226,0,0,1-.149-2.894c.355-.841-.375-2.874-.54-3.733-.286-1.482-.593-2.961-.968-4.416-.516-2.01-1.114-3.989-1.735-5.96C26.4,27.566,23.7,20.887,23.54,13.729c-.013-.546-.033-1.091-.06-1.637a2.23,2.23,0,0,1,.019-.628c.037-.155.087-.145.173-.228a5.007,5.007,0,0,0,.974-.959,1.751,1.751,0,0,0,.112-1.226,19.939,19.939,0,0,0-.909-3.789c-.12-.3-.256-.712.026-.842.9-.415.919-2.158.613-3.046A1.734,1.734,0,0,0,22.965.186,54.809,54.809,0,0,0,16.692.011,54.12,54.12,0,0,0,10.42.188,1.735,1.735,0,0,0,8.9,1.375c-.308.888-.289,2.63.611,3.046.281.13.148.544.026.842a19.858,19.858,0,0,0-.908,3.789,1.757,1.757,0,0,0,.11,1.226,5.033,5.033,0,0,0,.974.959c.089.083.136.072.173.228a2.312,2.312,0,0,1,.019.628c-.027.547-.047,1.091-.06,1.637C9.682,20.889,6.982,27.567,4.9,34.173c-.621,1.969-1.22,3.949-1.737,5.96-.374,1.456-.682,2.934-.966,4.416-.165.859-.9,2.892-.542,3.733a4.238,4.238,0,0,1-.149,2.894,39.346,39.346,0,0,0-.965,7A103.28,103.28,0,0,0,.174,69.332,15.92,15.92,0,0,0,.3,71.481a3.546,3.546,0,0,1-.138,1.75,7.618,7.618,0,0,0,.063,3.154c.463,5.852,1.083,11.687,1.808,17.5A41.4,41.4,0,0,1,2.137,103.9a31.736,31.736,0,0,1-.851,5.133A38.132,38.132,0,0,0,.1,116.768a20.642,20.642,0,0,0,.3,4.857c.113.706.243,1.406.306,2.126a4.413,4.413,0,0,0,3.27,3.661,33.77,33.77,0,0,0,7.42,1.682,45.418,45.418,0,0,0,5.3.285,45.4,45.4,0,0,0,5.293-.285,33.813,33.813,0,0,0,7.42-1.682,4.412,4.412,0,0,0,3.27-3.661c.065-.72.193-1.419.308-2.126a20.81,20.81,0,0,0,.3-4.857,38.128,38.128,0,0,0-1.184-7.742Z" transform="matrix(0.966, -0.259, 0.259, 0.966, 809.828, 3008.742)" fill="#f40000"/>
    </g>
  </g>
</svg>
