<svg xmlns="http://www.w3.org/2000/svg" width="170.857" height="53.591" viewBox="0 0 170.857 53.591">
  <g id="logo-invert" transform="translate(0.404 0.502)">
    <g id="_672344296" transform="translate(-0.408 -0.507)">
      <path id="Path_441" data-name="Path 441" d="M73.64,53.078a22.426,22.426,0,0,0-13.6-3.956,8.311,8.311,0,0,0-6.619,3.6c-2.065-3.6-6.151-5.8-12.455-5.76-10.183.12-20.28,4.825-28.279,4.825C5.02,51.785-.588,46.959-.4,38.4-.074,23.38,12.609,9.861,22.1,3.764c5.445-3.5,10.02-4.543,13-4.206,2.174.239,4.8,2.76,3.152,6.466C35.82,11.453,32.461,11,32.581,8.4a4.315,4.315,0,0,1,2.032-3.326,4.123,4.123,0,0,1,1.978-.489c.478-.4.848-3.38-3.065-2.4S24.919,7,20.441,11.942,8.986,26.267,7.258,36.1C6.454,40.667,7,48.981,17.8,48.883c9.162-.087,22.682-6.119,35.093-6.01a23.712,23.712,0,0,1,12.292,3.358c3.228,1.989,7.075,4.88,8.444,6.847l.011.011Zm2.934-27.224h1.88S69.043,39.46,63.729,38.841c-2.978-.337-2.087-4.01-2.087-4.01s-4.173,4.891-7.988,3.912c-3.478-.891-1.239-6.673-1.239-6.673-.391.163-7.912,8.64-13.183,6.608-5.521-2.13-2.663-9.227-1.608-11.357.891-1.8,1.869-3.554,1.869-3.554s-.848.239-1.38.359-1.326.272-1.326.272-2.608,4.249-4.206,6.369-8.379,9.412-12.39,7.955-3.01-7.053-.761-11.5c3.641-7.216,12.292-16.074,17.5-14.748,5.26,1.337.913,9.879.913,9.879s1.043.13,3.554-1.576c3.619-2.467,8.368-9.1,13.531-8.325,2.424.37,4.684,2.858,1.6,7.575-.989,1.511-2.652,2.88-3.923,1.532-.793-.826-.1-2.347.728-3.391A3.245,3.245,0,0,1,56.11,16.9s.848-1.967-1.3-1.924c-1.761.033-6.206,4.13-8.7,8.26-2.3,3.793-5.782,10.27-2.282,11.683,3.217,1.293,9.314-5.956,12.14-9.759s9.26-12.411,14.672-12.77A3.6,3.6,0,0,1,73.6,13.964l.63-.989h5.391s-10.172,17-10.977,18.291c-.63,1.011-1.456,3.271.848,2s7.086-7.434,7.086-7.434ZM34.689,24.126a11.846,11.846,0,0,1-2.782-1.272,6.009,6.009,0,0,1-1.989-2.2c-.043-.087-.1-.022-.152.054s-.337.435-2.271,3.271-4.782,8.618-2.108,9.607c1.717.63,4.586-2.369,6.14-4.358a51.209,51.209,0,0,0,3.239-4.858c.076-.163.011-.206-.087-.239Zm2.13-9.031c-1.413-1.076-5.021,1.435-5.043,3.989-.022,2.63,3.26,3.369,3.673,3.391a.457.457,0,0,0,.522-.217A23.639,23.639,0,0,0,37,19.941c.5-1.3,1.13-3.858-.2-4.858Zm27.507,14.15C66.51,26.256,72.52,15.78,72.52,15.78a.885.885,0,0,0-.8-.772c-.826-.033-2.206.239-4.978,3.7a64.624,64.624,0,0,0-6.456,9.064c-1.706,3.119-2.456,5.325-1.478,5.923a1.521,1.521,0,0,0,1.032.109,6.181,6.181,0,0,0,2.63-2.13c.543-.619,1.141-1.445,1.858-2.424ZM88.6,13.018h-5.13l-2.891,4.695H85.7ZM164.269,4.6c-3.793,2.434-9.042,4.652-14.085,4.162-1.272,1.326-2.652,2.847-4.021,4.521,8.749,1.728,16.411-3.7,20.486-8.314a27.111,27.111,0,0,0,3.793-5.456A33.8,33.8,0,0,1,164.258,4.6ZM149.26,44.351c-.728,1.163-1.554,3.391.848,2,2.924-1.685,7.075-8,7.075-8h1.88a62.132,62.132,0,0,1-5.717,7.5c-2.956,3.282-6.564,6.26-9.107,5.967-2.967-.348-2.043-4.239-2.043-4.239s-4.26,4.521-7.2,4.2c-3.967-.435-2.76-5.347-2.76-5.347s-4.488,5.521-7.542,5.347c-4.793-.272-3.6-6.13-2.261-10.227.717-2.2,1.369-3.923,1.369-3.923s-.478.12-1.5.272c-.533.076-1.511.13-1.511.13a63.887,63.887,0,0,1-3.586,5.651c-1.6,2.13-8.379,9.423-12.379,7.966-3.7-1.348-2.478-7.01-.326-11.509,3.141-6.553,11.966-15.976,17.052-14.737,5.282,1.282.13,10.911.13,10.911s0,.033.054.054a2.221,2.221,0,0,0,1.022-.054,11.53,11.53,0,0,0,1.935-.576S130,24.615,135.86,17.344,153.411-2.458,158.009.575c1.119.739.609,3.3-.891,6.423-.674.206-1.369.4-2.076.543a16.828,16.828,0,0,0,1.88-4.467c.685-3.76-8.086,4.162-14.346,12.694a118.6,118.6,0,0,0-10.02,16.248,27.82,27.82,0,0,0,3.239-2.3,94.036,94.036,0,0,0,7.955-7.434,88.006,88.006,0,0,0,6.771-7.825,20.088,20.088,0,0,0,2-.206,85.146,85.146,0,0,1-7.477,8.836c-2.489,2.532-5.206,5.249-7.553,7.238a61.863,61.863,0,0,1-6.63,4.934s-5.488,11.053-2.51,11.759c1.75.424,5.217-4.912,5.217-4.912a121.15,121.15,0,0,1,7.238-10c3.706-4.228,6.9-6.662,10.1-6.727,1.858-.033,2.967,1.956,2.967,1.956l.869-1.359h5.391s-10.064,17.1-10.857,18.378Zm-30.311-6.727a11.049,11.049,0,0,1-2.478-1.576,8.116,8.116,0,0,1-1.869-2.261c-.043-.087-.1-.022-.152.054s-.272.261-2.2,3.1-4.869,8.662-2.2,9.651c1.717.63,4.565-2.369,6.119-4.347a36.528,36.528,0,0,0,2.869-4.369c.076-.163,0-.206-.087-.239Zm2.728-4.771c.5-1.3,1.13-3.858-.2-4.858-1.413-1.076-5.021,1.435-5.043,3.989-.022,2.63,2.543,3.8,3.163,3.978.348.1.467.076.641-.206a22.686,22.686,0,0,0,1.435-2.913Zm30.963-3.608a2.361,2.361,0,0,0,.163-.359.869.869,0,0,0-.8-.761c-.837-.043-1.978.12-4.956,3.413a44.406,44.406,0,0,0-6.325,9c-1.706,3.119-2.391,5.445-1.413,6.043a1.453,1.453,0,0,0,1.032.109c.663-.163,1.424-.783,2.565-2.108.533-.619,1.13-1.511,1.848-2.478,1.956-2.684,6.912-11.151,7.89-12.846Zm11.64-24.66c-3.793,2.434-9.042,4.652-14.085,4.162-1.272,1.326-2.652,2.847-4.021,4.521,8.749,1.728,16.411-3.7,20.486-8.314A27.112,27.112,0,0,0,170.453-.5a33.8,33.8,0,0,1-6.184,5.086Zm-24.594,6.347c-4.141-2.119-7.162-4.717-10.314-6.336-3.01-1.543-4.945-2.184-7.368-1.858a7.23,7.23,0,0,0-1,.25s1.261,4.271-3.717,11.444c-5.043,7.271-9.607,7.238-10.911,5.228-1.369-2.108.391-6.412,3.326-10.238A36.937,36.937,0,0,1,118.177,2.1s-1.728-1.054-5.956,1.348c-4.119,2.337-11.238,7.89-17.813,17.269s-7.89,14.531-8.836,18.6-.076,8.4,4.423,8.4,9.738-6.869,11.216-9.26c2.75-4.445,4.543-11.27.793-10.325-1.848.456-3.336,2.5-4.271,4.467a19.076,19.076,0,0,0-1.359,3.945,15.467,15.467,0,0,0-3.641,2.119,26.5,26.5,0,0,0-3.456,3.065s.011-3.239,2.6-8.488,7.336-7.662,10.02-7.879c2.424-.2,5.575,1.858,2.9,9.455S94.257,51.622,85.975,51.741c-7.64.109-12.65-9.64-2.021-26.659C95.713,6.248,109.516.477,114-.154c4.488-.652,5.945,1.337,5.945,1.337A19.21,19.21,0,0,1,128.469-.23c5.477.37,9.716,4.249,15.3,6.966-1.456,1.413-2.847,2.869-4.1,4.239v-.022ZM119.3,3.552a21.177,21.177,0,0,0-6.934,5.38c-3.739,4.119-5.89,8.727-4.282,9.955.609.467,2.032.543,4.619-1.782a20.563,20.563,0,0,0,5.456-7.575C119.829,5.454,119.3,3.6,119.3,3.552Z" transform="translate(0.408 0.507)" fill="#fff"/>
      <path id="Path_442" data-name="Path 442" d="M14070.6,4418.63a2.073,2.073,0,0,0-1.51-.631,2.143,2.143,0,0,0-1.51,3.651,2.09,2.09,0,0,0,1.51.631,2.033,2.033,0,0,0,1.51-.631,2.151,2.151,0,0,0,0-3.02Zm-.217,2.825a1.85,1.85,0,1,1,.542-1.319,1.819,1.819,0,0,1-.524,1.325Z" transform="translate(-13914.116 -4369.979)" fill="#fff"/>
      <path id="Path_443" data-name="Path 443" d="M14185.8,4508.2c0-.065-.012-.108-.012-.173v-.174a.746.746,0,0,0-.117-.371.55.55,0,0,0-.413-.216.926.926,0,0,0,.335-.132.5.5,0,0,0,.229-.456.566.566,0,0,0-.368-.586,1.74,1.74,0,0,0-.631-.087H14184v2.347h.4v-.923h.326a.932.932,0,0,1,.455.076c.153.077.219.261.219.533v.26c0,.011,0,.011.01.022v.021h.381l-.012-.033a.545.545,0,0,1-.021-.119Zm-.609-1.1a1.547,1.547,0,0,1-.391.044h-.381v-.848h.348a1.118,1.118,0,0,1,.5.085.385.385,0,0,1,.164.349.378.378,0,0,1-.229.371Z" transform="translate(-14029.844 -4457.023)" fill="#fff"/>
    </g>
  </g>
</svg>
