<svg xmlns="http://www.w3.org/2000/svg" width="170.81" height="53.6" viewBox="0 0 170.81 53.6">
  <g id="Vrstva_x0020_1" transform="translate(0.408 13.507)">
    <g id="_672344296" transform="translate(-0.408 -13.507)">
      <path id="Path_441" data-name="Path 441" d="M73.618,53.082a22.414,22.414,0,0,0-13.592-3.956,8.308,8.308,0,0,0-6.617,3.6c-2.064-3.6-6.149-5.8-12.451-5.761-10.18.12-20.274,4.826-28.27,4.826C5.018,51.789-.588,46.963-.4,38.4-.078,23.378,12.6,9.857,22.087,3.759,27.53.259,32.1-.784,35.081-.447c2.173.239,4.8,2.761,3.151,6.467C35.809,11.454,32.452,11,32.571,8.4A4.315,4.315,0,0,1,34.6,5.074a4.12,4.12,0,0,1,1.977-.489c.478-.4.847-3.38-3.064-2.4S24.911,7,20.435,11.943,8.984,26.269,7.256,36.105C6.452,40.67,7,48.985,17.795,48.887c9.159-.087,22.675-6.119,35.082-6.01a23.7,23.7,0,0,1,12.288,3.358c3.227,1.989,7.073,4.88,8.442,6.847l.011.011Zm2.933-27.227h1.88S69.023,39.464,63.71,38.844c-2.977-.337-2.086-4.011-2.086-4.011s-4.172,4.891-7.986,3.913c-3.477-.891-1.239-6.673-1.239-6.673-.391.163-7.91,8.641-13.179,6.608-5.519-2.13-2.662-9.228-1.608-11.358.891-1.8,1.869-3.554,1.869-3.554s-.847.239-1.38.359-1.326.272-1.326.272-2.608,4.25-4.2,6.369-8.377,9.412-12.386,7.956-3.01-7.054-.761-11.5c3.64-7.217,12.288-16.075,17.492-14.749,5.259,1.337.913,9.88.913,9.88s1.043.13,3.553-1.576c3.618-2.467,8.366-9.1,13.527-8.326,2.423.37,4.683,2.859,1.6,7.576-.989,1.511-2.651,2.88-3.922,1.533-.793-.826-.1-2.348.728-3.391A3.244,3.244,0,0,1,56.093,16.9s.847-1.967-1.3-1.924c-1.76.033-6.2,4.13-8.7,8.26-2.3,3.793-5.78,10.271-2.282,11.684,3.216,1.293,9.311-5.956,12.136-9.76S65.2,12.748,70.609,12.389a3.6,3.6,0,0,1,2.966,1.576l.63-.989h5.389s-10.169,17-10.973,18.292c-.63,1.011-1.456,3.272.847,2s7.084-7.434,7.084-7.434ZM34.679,24.127A11.84,11.84,0,0,1,31.9,22.856a6.009,6.009,0,0,1-1.988-2.2c-.043-.087-.1-.022-.152.054s-.337.435-2.271,3.272-4.781,8.619-2.108,9.608c1.717.63,4.585-2.369,6.139-4.358a51.214,51.214,0,0,0,3.238-4.858c.076-.163.011-.207-.087-.239ZM36.808,15.1c-1.412-1.076-5.02,1.435-5.041,3.989-.022,2.63,3.259,3.369,3.672,3.391a.457.457,0,0,0,.522-.217,23.644,23.644,0,0,0,1.032-2.315c.5-1.3,1.13-3.858-.2-4.858Zm27.5,14.151C66.491,26.258,72.5,15.78,72.5,15.78a.885.885,0,0,0-.8-.772c-.826-.033-2.206.239-4.976,3.7a64.628,64.628,0,0,0-6.454,9.065c-1.706,3.119-2.455,5.326-1.478,5.924a1.52,1.52,0,0,0,1.032.109,6.179,6.179,0,0,0,2.629-2.13c.543-.62,1.141-1.446,1.858-2.424ZM88.568,13.019H83.44l-2.89,4.7h5.128ZM164.22,4.6c-3.792,2.435-9.039,4.652-14.081,4.163-1.271,1.326-2.651,2.848-4.02,4.521,8.746,1.728,16.406-3.7,20.48-8.315a27.116,27.116,0,0,0,3.792-5.456A33.789,33.789,0,0,1,164.209,4.6Zm-15,39.758c-.728,1.163-1.554,3.391.847,2,2.923-1.685,7.073-8,7.073-8h1.88a62.135,62.135,0,0,1-5.715,7.5c-2.955,3.282-6.562,6.26-9.1,5.967-2.966-.348-2.043-4.239-2.043-4.239s-4.259,4.521-7.193,4.2c-3.966-.435-2.76-5.347-2.76-5.347s-4.487,5.521-7.54,5.347c-4.791-.272-3.6-6.13-2.26-10.228.717-2.2,1.369-3.924,1.369-3.924s-.478.12-1.5.272c-.532.076-1.51.13-1.51.13a63.9,63.9,0,0,1-3.585,5.652c-1.6,2.13-8.377,9.423-12.375,7.967-3.694-1.348-2.477-7.01-.326-11.51,3.14-6.554,11.962-15.977,17.047-14.738,5.28,1.283.13,10.912.13,10.912s0,.033.054.054a2.22,2.22,0,0,0,1.021-.054,11.523,11.523,0,0,0,1.934-.576s5.3-11.119,11.158-18.39S153.366-2.458,157.962.575c1.119.739.608,3.3-.891,6.424-.674.207-1.369.4-2.075.543a16.833,16.833,0,0,0,1.88-4.467c.685-3.761-8.083,4.163-14.342,12.695a118.626,118.626,0,0,0-10.017,16.249,27.808,27.808,0,0,0,3.238-2.3,94.02,94.02,0,0,0,7.953-7.434,88.023,88.023,0,0,0,6.769-7.826,20.077,20.077,0,0,0,2-.207A85.156,85.156,0,0,1,145,23.084c-2.488,2.532-5.2,5.25-7.551,7.239a61.848,61.848,0,0,1-6.628,4.934s-5.487,11.054-2.51,11.76c1.749.424,5.215-4.913,5.215-4.913a121.159,121.159,0,0,1,7.236-10c3.7-4.228,6.9-6.663,10.093-6.728,1.858-.033,2.966,1.956,2.966,1.956l.869-1.359h5.389s-10.061,17.1-10.854,18.379Zm-30.3-6.728a11.044,11.044,0,0,1-2.477-1.576,8.115,8.115,0,0,1-1.869-2.261c-.043-.087-.1-.022-.152.054s-.272.261-2.195,3.1-4.867,8.663-2.195,9.652c1.717.63,4.563-2.369,6.117-4.348a36.533,36.533,0,0,0,2.868-4.369c.076-.163,0-.207-.087-.239Zm2.727-4.771c.5-1.3,1.13-3.858-.2-4.858-1.412-1.076-5.02,1.435-5.041,3.989-.022,2.63,2.542,3.8,3.162,3.978.348.1.467.076.641-.207a22.7,22.7,0,0,0,1.434-2.913Zm30.954-3.608a2.367,2.367,0,0,0,.163-.359.869.869,0,0,0-.8-.761c-.837-.043-1.977.12-4.954,3.413a44.411,44.411,0,0,0-6.323,9c-1.706,3.119-2.39,5.445-1.412,6.043a1.452,1.452,0,0,0,1.032.109c.663-.163,1.423-.783,2.564-2.109.532-.62,1.13-1.511,1.847-2.478,1.956-2.685,6.91-11.151,7.888-12.847ZM164.231,4.585c-3.792,2.435-9.04,4.652-14.081,4.163-1.271,1.326-2.651,2.848-4.02,4.521,8.746,1.728,16.406-3.7,20.48-8.315A27.114,27.114,0,0,0,170.4-.5a33.79,33.79,0,0,1-6.182,5.087Zm-24.587,6.347c-4.139-2.119-7.16-4.717-10.311-6.337-3.01-1.543-4.944-2.185-7.366-1.859a7.227,7.227,0,0,0-1,.25s1.26,4.271-3.716,11.445c-5.041,7.271-9.6,7.239-10.908,5.228-1.369-2.109.391-6.413,3.325-10.238A36.929,36.929,0,0,1,118.142,2.1s-1.728-1.054-5.954,1.348c-4.118,2.337-11.234,7.891-17.807,17.271s-7.888,14.532-8.833,18.6-.076,8.4,4.422,8.4,9.735-6.869,11.212-9.26c2.749-4.445,4.541-11.271.793-10.325-1.847.456-3.335,2.5-4.27,4.467a19.083,19.083,0,0,0-1.358,3.945,15.461,15.461,0,0,0-3.64,2.119,26.5,26.5,0,0,0-3.455,3.065s.011-3.239,2.6-8.489,7.334-7.663,10.017-7.88c2.423-.2,5.574,1.859,2.9,9.456S94.229,51.626,85.95,51.745c-7.638.109-12.647-9.641-2.021-26.661C95.685,6.248,109.483.477,113.97-.154c4.487-.652,5.943,1.337,5.943,1.337A19.2,19.2,0,0,1,128.431-.23c5.476.37,9.713,4.25,15.3,6.967-1.456,1.413-2.847,2.869-4.1,4.239v-.022Zm-20.382-7.38a21.172,21.172,0,0,0-6.932,5.38c-3.737,4.119-5.889,8.728-4.281,9.956.608.467,2.032.543,4.618-1.782a20.565,20.565,0,0,0,5.454-7.576c1.673-4.076,1.141-5.934,1.141-5.978Z" transform="translate(0.408 0.507)" fill="#f40000"/>
      <path id="Path_442" data-name="Path 442" d="M14070.641,4418.631a2.07,2.07,0,0,0-1.51-.631,2.143,2.143,0,0,0-1.51,3.652,2.091,2.091,0,0,0,1.51.63,2.03,2.03,0,0,0,1.51-.63,2.152,2.152,0,0,0,0-3.021Zm-.217,2.825a1.86,1.86,0,0,1-2.607,0,1.874,1.874,0,0,1,0-2.619,1.847,1.847,0,0,1,3.15,1.3A1.82,1.82,0,0,1,14070.424,4421.456Z" transform="translate(-13914.166 -4369.975)" fill="#f40000"/>
      <path id="Path_443" data-name="Path 443" d="M14185.794,4508.2c0-.065-.012-.108-.012-.173v-.174a.743.743,0,0,0-.118-.37.555.555,0,0,0-.413-.217.915.915,0,0,0,.337-.131.5.5,0,0,0,.228-.456.565.565,0,0,0-.369-.586,1.769,1.769,0,0,0-.63-.087H14184v2.347h.4v-.923h.326a.926.926,0,0,1,.455.076c.153.077.219.261.219.533v.26c0,.011,0,.011.01.022v.021h.381l-.012-.033a.566.566,0,0,1-.021-.119Zm-.609-1.1a1.553,1.553,0,0,1-.39.044h-.382v-.848h.348a1.118,1.118,0,0,1,.5.086.387.387,0,0,1,.163.348A.379.379,0,0,1,14185.185,4507.1Z" transform="translate(-14029.894 -4457.019)" fill="#f40000"/>
    </g>
  </g>
</svg>
